<svg class="thumb" width="431" height="256" viewBox="0,0,431,256" xmlns="http://www.w3.org/2000/svg" xmlns:inkscape="http://www.inkscape.org/namespaces/inkscape" xmlns:sodipodi="http://sodipodi.sourceforge.net/DTD/sodipodi-0.dtd" xmlns:xlink="http://www.w3.org/1999/xlink" xmlns:ns1="http://www.inkscape.org/namespaces/inkscape" xmlns:sketch="http://www.bohemiancoding.com/sketch/ns"><defs></defs><g><g transform="matrix(0.5,0,0,0.5,45.25,139.5)"><svg width="227.66666666666666" height="296" style="overflow: visible;"><defs><linearGradient x1="0" y1="0.5" x2="1" y2="0.5" id="linearGradientSkkmb8vof1l5"><stop offset="0%" stop-color="#eee"></stop><stop offset="100%" stop-color="#eee"></stop></linearGradient></defs><g><path d="M-90.49999999999999 0.5Q-94.19999999999999 0.5 -95.79999999999998-1.15Q-97.39999999999999-2.8 -97.39999999999999-7.4L-97.39999999999999-7.4Q-97.39999999999999-10.5 -96.74999999999999-15.35Q-96.1-20.2 -94.6-28.7L-94.6-28.7Q-91.99999999999999-44.4 -90.49999999999999-55.9L-90.49999999999999-55.9Q-89.6-63.1 -89.6-67.9L-89.6-67.9Q-89.6-72.4 -92.89999999999999-72.4L-92.89999999999999-72.4Q-95.49999999999999-72.4 -99.14999999999999-69.75Q-102.79999999999998-67.1 -107.19999999999999-61.3L-107.19999999999999-61.3Q-108.6-59.4 -110.29999999999998-59.4L-110.29999999999998-59.4Q-111.69999999999999-59.4 -112.74999999999999-60.75Q-113.79999999999998-62.1-113.79999999999998-63.8L-113.79999999999998-63.8Q-113.79999999999998-65.4 -113.14999999999999-67.05Q-112.49999999999999-68.7 -110.99999999999999-70.8L-110.99999999999999-70.8Q-106.19999999999999-77.5 -100.29999999999998-81.15Q-94.39999999999999-84.8 -88.49999999999999-84.8L-88.49999999999999-84.8Q-82.99999999999999-84.8 -80.04999999999998-81.3Q-77.1-77.8 -77.1-71.1L-77.1-71.1Q-77.1-68.4 -77.6-64.75Q-78.1-61.1 -78.49999999999999-58.8Q-78.89999999999999-56.5 -79.1-55.6L-79.1-55.6Q-73.39999999999999-71.9 -66.29999999999998-78.35Q-59.19999999999999-84.8 -50.69999999999999-84.8L-50.69999999999999-84.8Q-44.19999999999999-84.8 -40.44999999999999-80.2Q-36.69999999999999-75.6 -36.69999999999999-67.2L-36.69999999999999-67.2Q-36.69999999999999-63.9 -37.599999999999994-59L-37.599999999999994-59Q-32.599999999999994-72.8 -25.89999999999999-78.8Q-19.19999999999999-84.8 -10.499999999999986-84.8L-10.499999999999986-84.8Q-3.499999999999986-84.8  0.2500000000000142-80.3Q 4.000000000000014-75.8  4.000000000000014-67.7L 4.000000000000014-67.7Q 4.000000000000014-63.3  2.700000000000017-57L 2.700000000000017-57L-3.3999999999999915-28.4Q-4.3999999999999915-23.4 -4.3999999999999915-19.8L-4.3999999999999915-19.8Q-4.3999999999999915-15.6 -2.4499999999999886-13.5Q-0.4999999999999858-11.4  3.000000000000014-11.4L 3.000000000000014-11.4Q 6.300000000000011-11.4  9.450000000000017-13.6Q 12.600000000000009-15.8  16.900000000000006-20.9L 16.900000000000006-20.9Q 18.100000000000023-22.3  19.600000000000023-22.3L 19.600000000000023-22.3Q 20.900000000000006-22.3  21.650000000000006-21.1Q 22.400000000000006-19.9  22.400000000000006-17.8L 22.400000000000006-17.8Q 22.400000000000006-13.9  20.5-11.6L 20.5-11.6Q 15.300000000000011-5.3  10.200000000000017-2.4Q 5.1000000000000085 0.5 -0.4999999999999858 0.5L-0.4999999999999858 0.5Q-8.999999999999986 0.5 -13.799999999999983-4.55Q-18.599999999999994-9.6 -18.599999999999994-18.1L-18.599999999999994-18.1Q-18.599999999999994-24 -16.19999999999999-35.2L-16.19999999999999-35.2L-12.199999999999989-53.5Q-11.999999999999986-54.4 -11.499999999999986-56.7Q-10.999999999999986-59 -10.699999999999989-61.05Q-10.399999999999991-63.1 -10.399999999999991-65.1L-10.399999999999991-65.1Q-10.399999999999991-68.6 -11.749999999999986-70.35Q-13.099999999999994-72.1 -15.599999999999994-72.1L-15.599999999999994-72.1Q-20.299999999999983-72.1 -25.44999999999999-66.05Q-30.599999999999994-60 -35.249999999999986-46Q-39.89999999999999-32 -42.79999999999998-9.6L-42.79999999999998-9.6Q-43.499999999999986-3.6 -45.249999999999986-1.55Q-46.999999999999986 0.5 -50.89999999999999 0.5L-50.89999999999999 0.5Q-54.29999999999999 0.5 -55.84999999999999-1.1Q-57.39999999999999-2.7 -57.39999999999999-7.1L-57.39999999999999-7.1Q-57.39999999999999-11.2 -56.29999999999999-17.85Q-55.19999999999999-24.5 -53.499999999999986-33.5L-53.499999999999986-33.5Q-48.89999999999999-57.7 -48.89999999999999-64.7L-48.89999999999999-64.7Q-48.89999999999999-68.5 -50.34999999999999-70.3Q-51.79999999999999-72.1 -54.69999999999999-72.1L-54.69999999999999-72.1Q-59.59999999999999-72.1 -64.79999999999998-66.55Q-69.99999999999999-61 -74.94999999999999-46.85Q-79.89999999999999-32.7 -83.19999999999999-8.6L-83.19999999999999-8.6Q-83.89999999999999-3.5 -85.24999999999999-1.5Q-86.6 0.5 -90.49999999999999 0.5L-90.49999999999999 0.5ZM 26.600000000000023 0.5Q 20.40000000000002 0.5  16.70000000000002-4Q 13.000000000000021-8.5  13.000000000000021-15.8L 13.000000000000021-15.8Q 13.000000000000021-23.8  16.70000000000002-30.95Q 20.40000000000002-38.1  26.550000000000022-42.45Q 32.70000000000002-46.8  39.60000000000002-46.8L 39.60000000000002-46.8Q 41.80000000000002-46.8  42.55000000000002-45.95Q 43.30000000000002-45.1  43.80000000000002-42.9L 43.80000000000002-42.9Q 45.90000000000002-43.3  48.200000000000024-43.3L 48.200000000000024-43.3Q 53.10000000000002-43.3  53.10000000000002-39.8L 53.10000000000002-39.8Q 53.10000000000002-37.7  51.60000000000002-29.8L 51.60000000000002-29.8Q 49.30000000000002-18.3  49.30000000000002-13.8L 49.30000000000002-13.8Q 49.30000000000002-12.3  50.05000000000002-11.4Q 50.80000000000002-10.5  52.00000000000002-10.5L 52.00000000000002-10.5Q 53.90000000000002-10.5  56.60000000000002-12.95Q 59.30000000000002-15.4  63.90000000000002-20.9L 63.90000000000002-20.9Q 65.10000000000002-22.3  66.60000000000002-22.3L 66.60000000000002-22.3Q 67.90000000000002-22.3  68.65000000000002-21.1Q 69.40000000000002-19.9  69.40000000000002-17.8L 69.40000000000002-17.8Q 69.40000000000002-13.8  67.50000000000003-11.6L 67.50000000000003-11.6Q 63.40000000000002-6.5  58.80000000000002-3Q 54.200000000000024 0.5  49.90000000000002 0.5L 49.90000000000002 0.5Q 46.60000000000002 0.5  43.85000000000002-1.75Q 41.10000000000002-4  39.70000000000002-7.9L 39.70000000000002-7.9Q 34.50000000000002 0.5  26.600000000000023 0.5L 26.600000000000023 0.5ZM 30.20000000000002-9.6Q 32.40000000000002-9.6  34.40000000000002-12.2Q 36.40000000000002-14.8  37.300000000000026-19.1L 37.300000000000026-19.1L 41.00000000000002-37.5Q 36.800000000000026-37.4  33.25000000000002-34.35Q 29.70000000000002-31.3  27.600000000000023-26.3Q 25.50000000000002-21.3  25.50000000000002-15.7L 25.50000000000002-15.7Q 25.50000000000002-12.6  26.75000000000002-11.1Q 28.00000000000002-9.6  30.20000000000002-9.6L 30.20000000000002-9.6ZM 74.4-53.2Q 70.20000000000002-53.2  68.10000000000001-55.15Q 66.00000000000001-57.1  66.00000000000001-60.6L 66.00000000000001-60.6Q 66.00000000000001-64.1  68.75000000000001-66.45Q 71.50000000000001-68.8  75.60000000000002-68.8L 75.60000000000002-68.8Q 79.30000000000001-68.8  81.60000000000002-67Q 83.9-65.2  83.9-61.9L 83.9-61.9Q 83.9-57.9  81.30000000000001-55.55Q 78.70000000000002-53.2  74.4-53.2L 74.4-53.2ZM 73.60000000000002 0.5Q 67.10000000000001 0.5  64.15000000000002-4.1Q 61.20000000000002-8.7  61.20000000000002-16.3L 61.20000000000002-16.3Q 61.20000000000002-20.8  62.350000000000016-27.85Q 63.500000000000014-34.9  65.30000000000001-41L 65.30000000000001-41Q 66.20000000000002-44.2  67.70000000000002-45.4Q 69.20000000000002-46.6  72.50000000000001-46.6L 72.50000000000001-46.6Q 77.60000000000002-46.6  77.60000000000002-43.2L 77.60000000000002-43.2Q 77.60000000000002-40.7  75.70000000000002-31.6L 75.70000000000002-31.6Q 73.30000000000001-20.6  73.30000000000001-16.7L 73.30000000000001-16.7Q 73.30000000000001-13.7  74.10000000000002-12.1Q 74.9-10.5  76.80000000000001-10.5L 76.80000000000001-10.5Q 78.60000000000002-10.5  81.30000000000001-13Q 84.00000000000001-15.5  88.50000000000001-20.9L 88.50000000000001-20.9Q 89.70000000000002-22.3  91.20000000000002-22.3L 91.20000000000002-22.3Q 92.50000000000001-22.3  93.25000000000001-21.1Q 94.00000000000001-19.9  94.00000000000001-17.8L 94.00000000000001-17.8Q 94.00000000000001-13.8  92.10000000000002-11.6L 92.10000000000002-11.6Q 82.20000000000002 0.5  73.60000000000002 0.5L 73.60000000000002 0.5ZM 123.80000000000003-22.3Q 125.10000000000002-22.3  125.85000000000002-21.1Q 126.60000000000002-19.9  126.60000000000002-17.8L 126.60000000000002-17.8Q 126.60000000000002-13.8  124.70000000000002-11.6L 124.70000000000002-11.6Q 120.40000000000002-6.3  115.35000000000002-2.9Q 110.30000000000003 0.5  103.90000000000002 0.5L 103.90000000000002 0.5Q 95.10000000000002 0.5  90.85000000000002-7.5Q 86.60000000000002-15.5  86.60000000000002-28.2L 86.60000000000002-28.2Q 86.60000000000002-40.4  89.75000000000003-56Q 92.90000000000002-71.6  99.05000000000003-82.8Q 105.20000000000002-94  113.70000000000002-94L 113.70000000000002-94Q 118.50000000000003-94  121.25000000000003-89.55Q 124.00000000000003-85.1  124.00000000000003-76.8L 124.00000000000003-76.8Q 124.00000000000003-64.9  117.40000000000002-49.2Q 110.80000000000003-33.5  99.50000000000003-18.1L 99.50000000000003-18.1Q 100.20000000000002-14  101.80000000000003-12.25Q 103.40000000000002-10.5  106.00000000000003-10.5L 106.00000000000003-10.5Q 110.10000000000002-10.5  113.20000000000002-12.85Q 116.30000000000003-15.2  121.10000000000002-20.9L 121.10000000000002-20.9Q 122.30000000000003-22.3  123.80000000000003-22.3L 123.80000000000003-22.3ZM 111.50000000000003-84.1Q 109.20000000000002-84.1  106.30000000000003-75.8Q 103.40000000000002-67.5  101.20000000000002-55.2Q 99.00000000000003-42.9  98.80000000000003-31.6L 98.80000000000003-31.6Q 105.90000000000002-43.3  110.10000000000002-55.05Q 114.30000000000003-66.8  114.30000000000003-76.5L 114.30000000000003-76.5Q 114.30000000000003-84.1  111.50000000000003-84.1L 111.50000000000003-84.1Z" data-textpath="Mail" data-text-anchor="middle" data-font-size="100" data-letterspacing="0" data-side="left" data-offset="0" data-dx="0" data-dy="177" data-xmlspace="preserve" data-href="" data-font="Pacifico" data-font-src="/Content/clientfonts/pacifico.woff" data-font-scale="contain" transform="translate(341.5,177)" data-x="341.5" data-y="0" fill="url('#linearGradientSkkmb8vof1l5')"></path></g></svg></g><g transform="matrix(5.9568,0,0,5.9568,141.5841,0.6271)"><svg width="29.999557456140593" height="29.999961311130594" viewBox="-0.999835507027413,-3.9929613111305935,29.999557456140593,29.999961311130594"><defs><linearGradient x1="0" y1="0.5" x2="1" y2="0.5" id="linearGradientSkkmb8vofsn"><stop offset="0%" stop-color="#eee"></stop><stop offset="100%" stop-color="#eee"></stop></linearGradient></defs><g><path d="M12.5,21.006c-0.214,0-0.406-0.137-0.475-0.342l-1.921-5.763L4.342,12.98c-0.187-0.062-0.319-0.228-0.339-0.423   c-0.021-0.196,0.076-0.385,0.246-0.483l19-11c0.171-0.097,0.38-0.088,0.537,0.023c0.16,0.111,0.24,0.305,0.206,0.497l-3,17   c-0.026,0.15-0.12,0.28-0.255,0.353c-0.133,0.073-0.293,0.08-0.435,0.02l-6.434-2.757l-0.879,4.396   c-0.044,0.222-0.232,0.387-0.459,0.401C12.521,21.005,12.51,21.006,12.5,21.006z M5.711,12.382l4.947,1.649   c0.149,0.049,0.267,0.167,0.316,0.316l1.404,4.214l0.631-3.154c0.029-0.147,0.124-0.274,0.258-0.344   c0.133-0.071,0.291-0.077,0.43-0.017l6.42,2.751l2.704-15.321L5.711,12.382z" fill="url('#linearGradientSkkmb8vofsn')"></path></g></svg></g><g transform="matrix(5.9568,0,0,5.9568,177.3244,1.6704)"><svg width="23.999614070073044" height="25.00017354865095" viewBox="4.999750000000001,-3.9941735486509504,23.999614070073044,25.00017354865095"><defs><linearGradient x1="0" y1="0.5" x2="1" y2="0.5" id="linearGradientSkkmb8vofst"><stop offset="0%" stop-color="#eee"></stop><stop offset="100%" stop-color="#eee"></stop></linearGradient></defs><g><path d="M13.5,16.006c-0.101,0-0.202-0.03-0.291-0.093c-0.225-0.16-0.276-0.473-0.116-0.697l6.489-9.084l-8.729,8.728   c-0.195,0.195-0.512,0.195-0.707,0s-0.195-0.512,0-0.707l13-13c0.185-0.185,0.478-0.197,0.677-0.028   c0.198,0.168,0.234,0.46,0.084,0.672l-10,14C13.81,15.933,13.655,16.006,13.5,16.006z" fill="url('#linearGradientSkkmb8vofst')"></path></g></svg></g><g transform="matrix(5.9568,0,0,5.9568,190.2381,92.0214)"><svg width="13.999797486780702" height="15.000056103866171" viewBox="6.9996012566096475,11.005943896133829,13.999797486780702,15.000056103866171"><defs><linearGradient x1="0" y1="0.5" x2="1" y2="0.5" id="linearGradientSkkmb8vofsz"><stop offset="0%" stop-color="#eee"></stop><stop offset="100%" stop-color="#eee"></stop></linearGradient></defs><g><path d="M12.5,21.006c-0.104,0-0.21-0.033-0.3-0.1c-0.221-0.166-0.266-0.479-0.101-0.7l3-4c0.167-0.222,0.48-0.265,0.7-0.1   c0.221,0.166,0.266,0.479,0.101,0.7l-3,4C12.802,20.937,12.651,21.006,12.5,21.006z" fill="url('#linearGradientSkkmb8vofsz')"></path></g></svg></g><g transform="matrix(1,0,0,1,213.5,120.5)"><svg width="11.72142384351086" height="11.692750000000004" viewBox="-4.99925,13.006249999999998,11.72142384351086,11.692750000000004"><defs><linearGradient x1="0" y1="0.5" x2="1" y2="0.5" id="linearGradientSkkmb8voft5"><stop offset="0%" stop-color="#eee"></stop><stop offset="100%" stop-color="#eee"></stop></linearGradient></defs><g><path d="M1.222,19.699c-0.121,0-0.242-0.043-0.339-0.132c-0.249-0.229-0.494-0.465-0.736-0.707c-0.195-0.195-0.195-0.512,0-0.707     c0.195-0.196,0.512-0.195,0.707-0.001c0.232,0.232,0.468,0.459,0.707,0.679c0.203,0.187,0.216,0.503,0.029,0.707     C1.491,19.644,1.356,19.699,1.222,19.699z" fill="url('#linearGradientSkkmb8voft5')"></path></g></svg></g><g transform="matrix(5.9568,0,0,5.9568,112.649,120.8275)"><svg width="16.19738913996708" height="12.78662004090722" viewBox="-2.4130569149022376,15.208379959092781,16.19738913996708,12.78662004090722"><defs><linearGradient x1="0" y1="0.5" x2="1" y2="0.5" id="linearGradientSkkmb8voftb"><stop offset="0%" stop-color="#eee"></stop><stop offset="100%" stop-color="#eee"></stop></linearGradient></defs><g><path d="M8.034,22.995c-0.472,0-0.956-0.05-1.438-0.149c-0.271-0.055-0.444-0.319-0.39-0.59c0.056-0.271,0.323-0.442,0.591-0.39     c0.416,0.085,0.832,0.128,1.237,0.128c0.002,0,0.004,0,0.006,0l0.225-0.004c0.325-0.018,0.509,0.206,0.519,0.481     S8.577,22.98,8.302,22.99l-0.261,0.005C8.039,22.995,8.036,22.995,8.034,22.995z M4.451,22.038c-0.078,0-0.156-0.018-0.23-0.056     c-0.466-0.242-0.943-0.533-1.419-0.863c-0.228-0.158-0.283-0.47-0.125-0.696c0.158-0.228,0.471-0.282,0.695-0.125     c0.44,0.307,0.881,0.575,1.31,0.797c0.245,0.127,0.341,0.429,0.213,0.674C4.806,21.94,4.632,22.038,4.451,22.038z" fill="url('#linearGradientSkkmb8voftb')"></path></g></svg></g><g transform="matrix(5.9568,0,0,5.9568,163.2809,123.8059)"><svg width="11.895925329802866" height="11.453448214193273" viewBox="5.104967310024046,16.005551785806727,11.895925329802866,11.453448214193273"><defs><linearGradient x1="0" y1="0.5" x2="1" y2="0.5" id="linearGradientSkkmb8vofth"><stop offset="0%" stop-color="#eee"></stop><stop offset="100%" stop-color="#eee"></stop></linearGradient></defs><g><path d="M10.605,22.459c-0.194,0-0.379-0.114-0.46-0.303c-0.108-0.254,0.01-0.548,0.264-0.657     c0.277-0.119,0.558-0.259,0.837-0.424c0.237-0.14,0.543-0.062,0.685,0.177c0.141,0.238,0.062,0.544-0.177,0.685     c-0.309,0.182-0.629,0.345-0.952,0.483C10.738,22.447,10.671,22.459,10.605,22.459z" fill="url('#linearGradientSkkmb8vofth')"></path></g></svg></g></g></svg>